<?xml version="1.0" standalone="no"?>
<!DOCTYPE svg PUBLIC "-//W3C//DTD SVG 20010904//EN"
 "http://www.w3.org/TR/2001/REC-SVG-20010904/DTD/svg10.dtd">
<svg version="1.0" xmlns="http://www.w3.org/2000/svg"
 width="400.000000pt" height="400.000000pt" viewBox="0 0 400.000000 400.000000"
 preserveAspectRatio="xMidYMid meet">

<g transform="translate(0.000000,400.000000) scale(0.100000,-0.100000)"
fill="#000000" stroke="none">
<path d="M0 2000 l0 -2000 2000 0 2000 0 0 2000 0 2000 -2000 0 -2000 0 0
-2000z m1725 1250 c-3 -5 -16 -15 -28 -21 -22 -12 -22 -12 -3 10 19 21 43 30
31 11z m270 -86 c17 -9 46 -25 65 -35 42 -21 75 -55 89 -91 15 -39 25 -195 14
-210 -5 -7 -10 -29 -11 -48 -3 -40 -31 -100 -47 -100 -6 0 -28 -9 -50 -20 -22
-11 -53 -20 -71 -20 -17 0 -51 -7 -74 -15 -40 -14 -45 -14 -75 5 -17 11 -34
18 -36 16 -2 -2 -16 -6 -31 -10 -25 -6 -29 -2 -58 56 -25 52 -30 58 -30 35 0
-48 -22 -25 -43 45 -17 58 -18 70 -6 97 8 17 19 29 25 27 8 -3 13 19 16 62 7
97 51 171 103 172 11 0 32 7 48 14 17 10 27 11 27 4 0 -6 7 -5 18 4 36 32 82
36 127 12z m225 -238 c0 -8 6 -16 12 -18 28 -10 8 -168 -21 -168 -14 0 -22
103 -8 112 9 5 8 11 -5 24 -13 13 -14 21 -6 40 12 27 28 32 28 10z m-31 -418
c-5 -10 -14 -16 -19 -13 -6 3 -7 -1 -4 -9 6 -16 -44 -128 -76 -169 -12 -15
-27 -27 -35 -27 -7 0 -39 -20 -71 -45 -31 -25 -65 -45 -73 -45 -28 0 -140 78
-160 111 -21 34 -26 66 -37 203 l-7 89 41 -41 c23 -23 44 -52 47 -65 4 -13 21
-32 38 -42 18 -10 36 -24 40 -32 6 -10 13 -10 28 -3 13 7 25 8 37 1 15 -8 13
-11 -13 -21 -23 -9 -26 -13 -15 -20 31 -20 69 -9 141 38 93 61 113 84 115 130
1 20 6 53 10 72 8 33 8 32 16 -29 4 -39 3 -71 -3 -83z m-284 -609 c11 -16 1
-19 -13 -3 -7 8 -8 14 -3 14 5 0 13 -5 16 -11z m5 -663 c0 -3 -4 -8 -10 -11
-5 -3 -10 -1 -10 4 0 6 5 11 10 11 6 0 10 -2 10 -4z m-844 -102 c89 -47 99
-64 124 -209 7 -38 14 -88 17 -110 3 -22 9 -44 14 -49 5 -6 9 -19 9 -31 0 -12
5 -26 10 -31 13 -13 40 -114 30 -114 -13 0 -128 73 -198 127 -80 61 -96 86
-136 208 -27 83 -30 112 -20 189 l7 46 47 0 c31 0 63 -9 96 -26z m2084 -2 c14
-6 33 -13 44 -16 13 -5 15 -10 8 -19 -5 -6 -16 -32 -23 -56 -7 -23 -19 -45
-26 -48 -7 -3 -13 -11 -13 -18 0 -7 -7 -19 -17 -26 -9 -8 -25 -34 -36 -58 -36
-82 -222 -238 -376 -315 -93 -47 -97 -46 -52 28 60 97 86 152 157 329 35 88
72 169 81 179 9 10 30 23 47 28 37 11 171 6 206 -8z m-713 -655 c5 -5 -90 -37
-109 -37 -15 0 -8 19 13 38 16 16 27 18 55 12 20 -5 38 -11 41 -13z m-392 -36
c0 -31 -40 -43 -107 -35 -57 8 -84 25 -75 48 6 14 20 16 94 14 86 -3 88 -4 88
-27z"/>
<path d="M1982 3025 c-18 -8 -31 -19 -28 -24 4 -5 2 -12 -3 -15 -19 -12 3 -47
36 -61 48 -20 86 -19 113 3 26 21 21 38 -14 52 l-21 9 23 0 c50 2 8 50 -43 50
-16 0 -45 -6 -63 -14z"/>
<path d="M1753 3013 c-7 -2 -13 -11 -13 -18 0 -7 6 -16 13 -19 9 -3 7 -9 -5
-19 -31 -25 -20 -34 40 -35 58 -1 102 17 102 41 0 30 -40 57 -83 56 -23 0 -48
-3 -54 -6z"/>
<path d="M1864 2837 c-20 -11 -7 -29 17 -22 13 4 19 2 19 -8 0 -9 13 -14 42
-15 24 -1 49 -9 58 -18 14 -15 13 -16 -12 -10 -16 3 -28 3 -28 -1 0 -12 59
-43 82 -43 30 0 19 41 -19 65 -22 14 -30 25 -27 38 4 11 0 17 -13 18 -58 5
-106 3 -119 -4z"/>
<path d="M1824 2770 c-27 -11 -36 -24 -29 -43 6 -15 50 -12 70 5 5 5 19 15 30
23 18 13 17 13 -15 5 -44 -13 -43 -13 -36 5 3 8 4 15 3 14 -1 0 -12 -4 -23 -9z"/>
<path d="M1911 2691 c-15 -10 -7 -31 12 -31 7 0 19 5 27 10 13 9 13 11 0 20
-18 12 -21 12 -39 1z"/>
</g>
</svg>
